<svg width="40" height="40" viewBox="0 0 40 40" fill="none" xmlns="http://www.w3.org/2000/svg">
<circle cx="20" cy="20" r="20" fill="#F1F6FF"/>
<path d="M15.2309 6C15.1445 5.99996 15.0583 6.00055 14.9723 6.00176C13.8257 6.0177 12.7121 6.14886 11.7117 6.43598C10.111 6.89537 8.76219 7.79343 8.20848 9.27881C7.71436 10.6044 8.14525 11.8161 9.01014 12.7469C9.87504 13.6776 11.1404 14.4291 12.4811 15.1797C13.8219 15.9303 15.2413 16.6728 16.3964 17.4992C17.5515 18.3255 18.4203 19.2247 18.7547 20.2518C18.8175 20.4445 18.7701 21.0461 18.6474 21.5399C18.5985 21.7366 18.5464 21.909 18.4994 22.0569L19.4794 22.2895C19.5264 22.1385 19.577 21.964 19.624 21.7749C19.763 21.2158 19.9118 20.5632 19.7122 19.9502C19.2781 18.6164 18.2266 17.5855 16.9877 16.6993C15.7488 15.813 14.3007 15.0604 12.9785 14.3202C11.6563 13.5799 10.4632 12.8446 9.75221 12.0795C9.04126 11.3144 8.77901 10.6213 9.15252 9.61934C9.57134 8.4957 10.5777 7.79184 11.9933 7.38548C13.4089 6.97917 15.1957 6.9096 16.9603 7.0733C18.7249 7.23705 20.4701 7.631 21.8087 8.1111C22.3865 8.31832 22.8882 8.54236 23.278 8.76271C23.4576 8.63099 23.6474 8.49911 23.8468 8.38135C23.9682 8.30964 24.0948 8.24249 24.2271 8.18452C24.1496 8.1312 24.0708 8.07967 23.9908 8.03C23.4942 7.7226 22.8709 7.43927 22.1532 7.18188C20.7178 6.6671 18.9069 6.26036 17.0548 6.08847C16.447 6.03209 15.8353 6.00055 15.2309 6ZM25.0565 8.98317C25.0363 8.98383 25.0155 8.98522 24.9942 8.98735C24.8231 9.00383 24.604 9.0878 24.3643 9.22935C24.0225 9.4313 23.6638 9.73627 23.2897 10.0104L26.778 14.63L27.909 14.3692C27.6709 12.7021 27.1147 10.3773 25.477 9.1344C25.3155 9.0118 25.1979 8.9785 25.0565 8.98317ZM28.0057 15.3628L27.0269 15.5885L29.8345 27.3732H30.8672L28.0057 15.3628ZM9.90688 21.9398L9.79712 22.9551C10.1231 22.9662 10.459 22.9815 10.8032 23.001L10.9066 22.0444L9.90688 21.9398ZM16.7876 22.668L16.5088 23.6767L19.8761 24.4801L20.1834 23.4742L16.7876 22.668ZM8.5849 23.9218C8.53273 23.9218 8.52318 23.9163 8.44202 24.0265C8.36086 24.1366 8.26344 24.3612 8.19569 24.6586C8.06007 25.2534 8.02722 26.1227 8.08118 26.9912C8.13519 27.8596 8.27288 28.7361 8.44246 29.3655C8.5272 29.6802 8.62344 29.935 8.69874 30.0739C8.71544 30.1047 8.71706 30.103 8.72946 30.1208H9.24865C9.06865 29.723 8.97572 29.2924 8.9759 28.8569C8.9759 27.1329 10.4074 25.7247 12.1598 25.7247C13.9122 25.7247 15.3436 27.1329 15.3436 28.8569C15.3438 29.2924 15.2509 29.723 15.0709 30.1208H20.1269C20.1525 30.0876 20.2004 30.0116 20.2469 29.8845C20.3475 29.6096 20.432 29.1669 20.4856 28.6924C20.5928 27.7432 20.5942 26.6589 20.5942 26.2193C20.5942 26.1849 20.5766 26.1084 20.4119 25.9668C20.2471 25.8252 19.9561 25.6561 19.5739 25.4965C18.8094 25.1771 17.6876 24.885 16.4232 24.6497C13.8945 24.1791 10.7798 23.9218 8.5849 23.9218ZM12.1598 26.7138C10.9507 26.7138 9.98134 27.6675 9.98134 28.8569C9.98134 30.0463 10.9507 31 12.1598 31C13.3689 31 14.3382 30.0463 14.3382 28.8569C14.3382 27.6675 13.3689 26.7138 12.1598 26.7138ZM29.4511 28.3624L29.0601 29.1317H31.9019L31.5109 28.3624H29.4511ZM26.962 30.1208V30.8901H34V30.1208H26.962Z" fill="#28364D"/>
</svg>
