<svg width="186" height="43" viewBox="0 0 186 43" fill="none" xmlns="http://www.w3.org/2000/svg">
<path d="M25.3322 35.456C25.4602 35.584 25.6762 35.68 25.9802 35.744C26.3002 35.824 26.6042 35.864 26.8922 35.864C27.4202 35.864 27.9242 35.688 28.4042 35.336C28.8842 35 29.3402 34.536 29.7722 33.944C30.2202 33.352 30.6442 32.672 31.0442 31.904C31.4442 31.136 31.8282 30.328 32.1962 29.48H32.1722C31.8522 30.184 31.5082 30.904 31.1402 31.64C30.7722 32.392 30.3722 33.072 29.9402 33.68C29.5082 34.304 29.0362 34.808 28.5242 35.192C28.0282 35.592 27.4922 35.792 26.9162 35.792C26.4522 35.792 25.9962 35.656 25.5482 35.384C25.7882 35.304 26.0122 35.264 26.2202 35.264C26.2842 35.264 26.3962 35.28 26.5562 35.312C26.8122 35.312 27.0282 35.304 27.2042 35.288C27.3802 35.272 27.5482 35.232 27.7082 35.168C27.8682 35.12 28.0202 35.032 28.1642 34.904C28.3082 34.792 28.4682 34.64 28.6442 34.448L28.9322 34.52C29.3962 33.912 29.8282 33.256 30.2282 32.552C30.6442 31.848 31.0522 31.136 31.4522 30.416L31.8842 29.456L31.6682 29.408L31.3082 30.272C30.9402 30.992 30.5562 31.696 30.1562 32.384C29.7562 33.088 29.3002 33.728 28.7882 34.304C29.3482 33.616 29.8602 32.848 30.3242 32C30.7882 31.152 31.2122 30.272 31.5962 29.36L31.4522 29.12C31.3722 28.752 31.2522 28.392 31.0922 28.04C30.9802 27.768 30.8522 27.488 30.7082 27.2C30.9962 27.888 31.1962 28.552 31.3082 29.192C31.1482 29.144 31.0122 29.048 30.9002 28.904C30.8042 28.744 30.7082 28.56 30.6122 28.352C30.5322 28.144 30.4522 27.928 30.3722 27.704C30.3082 27.48 30.2202 27.256 30.1082 27.032L30.2282 26.816C29.9722 26.416 29.6922 25.92 29.3882 25.328C29.1002 24.736 28.7882 24.128 28.4522 23.504C28.1322 22.88 27.8042 22.272 27.4682 21.68C27.1322 21.088 26.8042 20.592 26.4842 20.192L26.4122 20.264L29.4122 25.664C28.8042 24.64 28.1562 23.6 27.4682 22.544C26.7802 21.488 26.1642 20.32 25.6202 19.04C25.6202 18.928 25.6042 18.784 25.5722 18.608C25.5402 18.416 25.5002 18.224 25.4522 18.032C25.4202 17.824 25.3802 17.624 25.3322 17.432C25.2842 17.224 25.2362 17.04 25.1882 16.88L25.8122 16.688C25.8922 16.688 25.9642 16.728 26.0282 16.808C26.0922 16.872 26.1482 17.016 26.1962 17.24C26.2762 17.24 26.3482 17.176 26.4122 17.048C26.4762 16.92 26.5402 16.776 26.6042 16.616C26.6842 16.456 26.7642 16.312 26.8442 16.184C26.9402 16.056 27.0602 15.992 27.2042 15.992C27.4122 15.992 27.5962 16.136 27.7562 16.424C27.9322 16.696 28.0922 17.032 28.2362 17.432C28.3962 17.832 28.5642 18.256 28.7402 18.704C28.9162 19.136 29.1242 19.512 29.3642 19.832C29.6202 20.264 29.8762 20.688 30.1322 21.104C30.4042 21.52 30.6522 21.96 30.8762 22.424C31.1162 23.064 31.4282 23.712 31.8122 24.368C32.1962 25.008 32.5002 25.68 32.7242 26.384C33.1082 25.104 33.4122 23.968 33.6362 22.976C33.8762 21.968 34.0602 20.968 34.1882 19.976C34.3642 19.464 34.5162 18.888 34.6442 18.248C34.7722 17.608 34.8362 16.984 34.8362 16.376L35.3642 16.4C35.4442 16.4 35.5162 16.44 35.5802 16.52C35.6442 16.584 35.6762 16.752 35.6762 17.024C35.6762 17.104 35.6682 17.192 35.6522 17.288C35.6522 17.368 35.6442 17.472 35.6282 17.6H35.8442C35.9882 17.072 36.1562 16.648 36.3482 16.328C36.5402 16.008 36.7242 15.848 36.9002 15.848C37.0282 15.848 37.1482 15.984 37.2602 16.256C37.3882 16.528 37.4522 16.984 37.4522 17.624C37.4522 18.696 37.3242 19.856 37.0682 21.104C36.8122 22.352 36.5482 23.584 36.2762 24.8C35.8282 26.432 35.3002 28 34.6922 29.504C34.0842 31.008 33.3162 32.536 32.3882 34.088C32.1002 34.52 31.7722 34.968 31.4042 35.432C31.0522 35.912 30.6362 36.344 30.1562 36.728C29.6922 37.112 29.1562 37.424 28.5482 37.664C27.9562 37.92 27.2762 38.048 26.5082 38.048C25.9482 38.048 25.5642 37.976 25.3562 37.832C25.1642 37.688 25.0682 37.576 25.0682 37.496C25.0682 37.448 25.0842 37.392 25.1162 37.328C25.5962 37.488 26.1082 37.568 26.6522 37.568C27.0362 37.568 27.4762 37.496 27.9722 37.352C28.4842 37.224 28.9402 37.024 29.3402 36.752C28.9722 36.944 28.5562 37.112 28.0922 37.256C27.6442 37.4 27.2362 37.472 26.8682 37.472C26.2922 37.472 25.7322 37.4 25.1882 37.256C25.1882 37.144 25.1402 37.04 25.0442 36.944C24.9642 36.848 24.8682 36.752 24.7562 36.656C24.6442 36.576 24.5402 36.488 24.4442 36.392C24.3642 36.296 24.3242 36.184 24.3242 36.056C24.3242 35.928 24.3642 35.832 24.4442 35.768C24.5242 35.704 24.6122 35.656 24.7082 35.624C24.8202 35.592 24.9322 35.56 25.0442 35.528C25.1562 35.512 25.2522 35.488 25.3322 35.456ZM33.3962 31.208C32.9322 32.04 32.4522 32.872 31.9562 33.704C31.4602 34.552 30.8362 35.352 30.0842 36.104C30.8522 35.384 31.4842 34.6 31.9802 33.752C32.4922 32.92 32.9642 32.072 33.3962 31.208ZM31.5962 25.184L32.3882 27.152L32.5322 27.008L31.5962 25.184ZM32.8682 26.816C32.9322 26.624 32.9882 26.432 33.0362 26.24L33.1802 25.664L33.0362 25.592L32.7722 26.528C32.8042 26.656 32.8362 26.752 32.8682 26.816ZM30.1562 25.952C29.9802 25.536 29.7722 25.128 29.5322 24.728C29.3082 24.312 29.0602 23.904 28.7882 23.504C29.0282 23.968 29.2762 24.432 29.5322 24.896C29.7882 25.328 30.0282 25.768 30.2522 26.216L30.1562 25.952ZM30.7322 23.216C30.7482 23.456 30.7802 23.656 30.8282 23.816C30.8922 23.976 30.9562 24.12 31.0202 24.248C31.1002 24.36 31.1722 24.472 31.2362 24.584C31.3162 24.68 31.3882 24.8 31.4522 24.944L31.4042 24.872L30.7322 23.216ZM32.5802 27.104L32.4122 27.296C32.4442 27.344 32.4762 27.392 32.5082 27.44C32.5402 27.472 32.5642 27.52 32.5802 27.584L32.7002 27.392L32.5802 27.104ZM41.8365 25.136C42.0925 25.216 42.3965 25.36 42.7485 25.568C43.1165 25.776 43.5245 25.992 43.9725 26.216C44.4205 26.44 44.9085 26.64 45.4365 26.816C45.9805 26.992 46.5565 27.08 47.1645 27.08H47.4285C47.5245 27.08 47.6365 27.064 47.7645 27.032L48.0285 27.224C48.6525 27.032 49.1645 26.672 49.5645 26.144C49.9645 25.6 50.1645 24.872 50.1645 23.96C50.1645 23.304 50.0045 22.856 49.6845 22.616C49.3805 22.36 48.8125 22.232 47.9805 22.232C47.4685 22.232 46.9325 22.272 46.3725 22.352C45.8285 22.416 45.2525 22.448 44.6445 22.448C44.3725 22.448 44.0925 22.44 43.8045 22.424C43.5165 22.392 43.2205 22.336 42.9165 22.256V22.4C43.5565 22.56 44.1885 22.64 44.8125 22.64C45.4205 22.64 45.9965 22.608 46.5405 22.544C47.1005 22.464 47.6365 22.424 48.1485 22.424C48.5805 22.424 48.9165 22.472 49.1565 22.568C49.4125 22.648 49.6045 22.76 49.7325 22.904C49.8605 23.048 49.9405 23.224 49.9725 23.432C50.0205 23.624 50.0445 23.84 50.0445 24.08C50.0445 24.832 49.8445 25.472 49.4445 26C49.0605 26.496 48.6045 26.808 48.0765 26.936C48.6685 26.728 49.1325 26.368 49.4685 25.856C49.8205 25.312 49.9965 24.704 49.9965 24.032C49.9965 23.552 49.8685 23.184 49.6125 22.928C49.3725 22.672 48.9485 22.544 48.3405 22.544C47.8445 22.544 47.2845 22.576 46.6605 22.64C46.0365 22.704 45.3725 22.736 44.6685 22.736C44.2365 22.736 43.7325 22.68 43.1565 22.568C42.5965 22.456 42.0605 22.248 41.5485 21.944C41.0365 21.64 40.6045 21.224 40.2525 20.696C39.9005 20.152 39.7245 19.448 39.7245 18.584C39.7245 17.896 39.8605 17.264 40.1325 16.688C40.4205 16.096 40.7965 15.584 41.2605 15.152C41.7245 14.704 42.2525 14.352 42.8445 14.096C43.4525 13.84 44.0765 13.704 44.7165 13.688C45.3245 13.688 45.9005 13.776 46.4445 13.952C47.0045 14.112 47.5325 14.328 48.0285 14.6C48.5245 14.856 48.9965 15.144 49.4445 15.464C49.8925 15.784 50.3085 16.104 50.6925 16.424L50.2125 16.904C50.1005 16.904 49.9325 16.84 49.7085 16.712C49.4845 16.568 49.1405 16.328 48.6765 15.992L48.5325 16.208C49.1085 16.672 49.5245 17.104 49.7805 17.504C50.0525 17.904 50.1885 18.216 50.1885 18.44C50.1565 18.568 50.0765 18.632 49.9485 18.632C49.8205 18.632 49.5645 18.528 49.1805 18.32C48.7965 18.112 48.3565 17.88 47.8605 17.624C47.3805 17.368 46.8685 17.136 46.3245 16.928C45.7805 16.72 45.2845 16.616 44.8365 16.616C44.5805 16.616 44.3245 16.664 44.0685 16.76C43.8125 16.856 43.5805 16.992 43.3725 17.168C43.1645 17.328 42.9885 17.528 42.8445 17.768C42.7165 18.008 42.6525 18.272 42.6525 18.56C42.6525 19.024 42.8685 19.336 43.3005 19.496C43.7325 19.656 44.3005 19.736 45.0045 19.736C45.1485 19.736 45.3005 19.736 45.4605 19.736C45.6365 19.72 45.7965 19.696 45.9405 19.664C46.3085 19.664 46.5485 19.656 46.6605 19.64C46.7885 19.608 46.9085 19.592 47.0205 19.592C47.7085 19.592 48.3965 19.64 49.0845 19.736C49.7725 19.832 50.3885 20.04 50.9325 20.36C51.4765 20.68 51.9165 21.136 52.2525 21.728C52.5885 22.32 52.7565 23.112 52.7565 24.104C52.7565 24.792 52.6365 25.48 52.3965 26.168C52.1725 26.84 51.8285 27.448 51.3645 27.992C50.9005 28.52 50.3245 28.944 49.6365 29.264C48.9485 29.6 48.1405 29.768 47.2125 29.768C46.6525 29.768 45.9885 29.656 45.2205 29.432C44.4685 29.224 43.7485 28.976 43.0605 28.688C42.3885 28.384 41.8125 28.072 41.3325 27.752C40.8685 27.432 40.6365 27.16 40.6365 26.936C40.6365 26.872 40.6765 26.824 40.7565 26.792C41.7325 27.512 42.7245 28.104 43.7325 28.568C44.7245 29 45.7405 29.24 46.7805 29.288C46.2685 29.256 45.7565 29.168 45.2445 29.024C44.7165 28.864 44.1885 28.672 43.6605 28.448C43.1485 28.208 42.6525 27.944 42.1725 27.656C41.7085 27.352 41.2605 27.048 40.8285 26.744L41.1885 26.432C41.1405 26.416 41.0525 26.36 40.9245 26.264C40.7965 26.168 40.6685 26.048 40.5405 25.904C40.4285 25.76 40.3245 25.608 40.2285 25.448C40.1325 25.288 40.0845 25.136 40.0845 24.992C40.0845 24.832 40.1165 24.728 40.1805 24.68C40.2445 24.632 40.3165 24.608 40.3965 24.608C40.4765 24.608 40.6445 24.664 40.9005 24.776C41.1565 24.888 41.4685 25.008 41.8365 25.136ZM47.1405 27.584C46.5805 27.584 45.9565 27.472 45.2685 27.248C44.5965 27.008 43.9565 26.704 43.3485 26.336C43.8445 26.672 44.3965 26.976 45.0045 27.248C45.6125 27.504 46.3165 27.632 47.1165 27.632C48.1885 27.632 49.0365 27.304 49.6605 26.648C50.3005 25.992 50.6205 25.112 50.6205 24.008V23.768C50.5405 23.256 50.3645 22.84 50.0925 22.52C49.8365 22.184 49.4365 22 48.8925 21.968C49.2285 22.032 49.5005 22.136 49.7085 22.28C49.9325 22.424 50.1005 22.6 50.2125 22.808C50.3405 23 50.4285 23.216 50.4765 23.456C50.5245 23.696 50.5485 23.944 50.5485 24.2C50.4845 25.256 50.1485 26.088 49.5405 26.696C48.9325 27.288 48.1325 27.584 47.1405 27.584ZM50.1885 28.52C50.5885 28.264 50.9085 27.952 51.1485 27.584C51.3885 27.216 51.5965 26.832 51.7725 26.432C51.4365 27.104 50.9725 27.696 50.3805 28.208C49.8045 28.72 49.1165 29.04 48.3165 29.168C48.6205 29.12 48.9325 29.056 49.2525 28.976C49.5885 28.88 49.9005 28.728 50.1885 28.52ZM52.4685 24.008C52.4685 23.832 52.4365 23.664 52.3725 23.504C52.3245 23.376 52.2845 23.24 52.2525 23.096L52.2765 23.408C52.2925 23.536 52.3005 23.712 52.3005 23.936C52.3005 24.368 52.2525 24.784 52.1565 25.184C52.0605 25.584 51.9405 25.976 51.7965 26.36C51.9405 26.008 52.0765 25.64 52.2045 25.256C52.3485 24.856 52.4365 24.44 52.4685 24.008ZM52.2525 23.024C52.2525 23.04 52.2525 23.064 52.2525 23.096C52.2525 23.064 52.2525 23.04 52.2525 23.024ZM48.0525 26.96C48.0365 26.96 48.0205 26.96 48.0045 26.96C48.0205 26.96 48.0365 26.96 48.0525 26.96ZM57.0943 25.136C57.3503 25.216 57.6543 25.36 58.0063 25.568C58.3743 25.776 58.7823 25.992 59.2303 26.216C59.6783 26.44 60.1663 26.64 60.6943 26.816C61.2383 26.992 61.8143 27.08 62.4223 27.08H62.6863C62.7823 27.08 62.8943 27.064 63.0223 27.032L63.2863 27.224C63.9103 27.032 64.4223 26.672 64.8223 26.144C65.2223 25.6 65.4223 24.872 65.4223 23.96C65.4223 23.304 65.2623 22.856 64.9423 22.616C64.6383 22.36 64.0703 22.232 63.2383 22.232C62.7263 22.232 62.1903 22.272 61.6303 22.352C61.0863 22.416 60.5103 22.448 59.9023 22.448C59.6303 22.448 59.3503 22.44 59.0623 22.424C58.7743 22.392 58.4783 22.336 58.1743 22.256V22.4C58.8143 22.56 59.4463 22.64 60.0703 22.64C60.6783 22.64 61.2543 22.608 61.7983 22.544C62.3583 22.464 62.8943 22.424 63.4063 22.424C63.8383 22.424 64.1743 22.472 64.4143 22.568C64.6703 22.648 64.8623 22.76 64.9903 22.904C65.1183 23.048 65.1983 23.224 65.2303 23.432C65.2783 23.624 65.3023 23.84 65.3023 24.08C65.3023 24.832 65.1023 25.472 64.7023 26C64.3183 26.496 63.8623 26.808 63.3343 26.936C63.9263 26.728 64.3903 26.368 64.7263 25.856C65.0783 25.312 65.2543 24.704 65.2543 24.032C65.2543 23.552 65.1263 23.184 64.8703 22.928C64.6303 22.672 64.2063 22.544 63.5983 22.544C63.1023 22.544 62.5423 22.576 61.9183 22.64C61.2943 22.704 60.6303 22.736 59.9263 22.736C59.4943 22.736 58.9903 22.68 58.4143 22.568C57.8543 22.456 57.3183 22.248 56.8063 21.944C56.2943 21.64 55.8623 21.224 55.5103 20.696C55.1583 20.152 54.9823 19.448 54.9823 18.584C54.9823 17.896 55.1183 17.264 55.3903 16.688C55.6783 16.096 56.0543 15.584 56.5183 15.152C56.9823 14.704 57.5103 14.352 58.1023 14.096C58.7103 13.84 59.3343 13.704 59.9743 13.688C60.5823 13.688 61.1583 13.776 61.7023 13.952C62.2623 14.112 62.7903 14.328 63.2863 14.6C63.7823 14.856 64.2543 15.144 64.7023 15.464C65.1503 15.784 65.5663 16.104 65.9503 16.424L65.4703 16.904C65.3583 16.904 65.1903 16.84 64.9663 16.712C64.7423 16.568 64.3983 16.328 63.9343 15.992L63.7903 16.208C64.3663 16.672 64.7823 17.104 65.0383 17.504C65.3103 17.904 65.4463 18.216 65.4463 18.44C65.4143 18.568 65.3343 18.632 65.2063 18.632C65.0783 18.632 64.8223 18.528 64.4383 18.32C64.0543 18.112 63.6143 17.88 63.1183 17.624C62.6383 17.368 62.1263 17.136 61.5823 16.928C61.0383 16.72 60.5423 16.616 60.0943 16.616C59.8383 16.616 59.5823 16.664 59.3263 16.76C59.0703 16.856 58.8383 16.992 58.6303 17.168C58.4223 17.328 58.2463 17.528 58.1023 17.768C57.9743 18.008 57.9103 18.272 57.9103 18.56C57.9103 19.024 58.1263 19.336 58.5583 19.496C58.9903 19.656 59.5583 19.736 60.2623 19.736C60.4063 19.736 60.5583 19.736 60.7183 19.736C60.8943 19.72 61.0543 19.696 61.1983 19.664C61.5663 19.664 61.8063 19.656 61.9183 19.64C62.0463 19.608 62.1663 19.592 62.2783 19.592C62.9663 19.592 63.6543 19.64 64.3423 19.736C65.0303 19.832 65.6463 20.04 66.1903 20.36C66.7343 20.68 67.1743 21.136 67.5103 21.728C67.8463 22.32 68.0143 23.112 68.0143 24.104C68.0143 24.792 67.8943 25.48 67.6543 26.168C67.4303 26.84 67.0863 27.448 66.6223 27.992C66.1583 28.52 65.5823 28.944 64.8943 29.264C64.2063 29.6 63.3983 29.768 62.4703 29.768C61.9103 29.768 61.2463 29.656 60.4783 29.432C59.7263 29.224 59.0063 28.976 58.3183 28.688C57.6463 28.384 57.0703 28.072 56.5903 27.752C56.1263 27.432 55.8943 27.16 55.8943 26.936C55.8943 26.872 55.9343 26.824 56.0143 26.792C56.9903 27.512 57.9823 28.104 58.9903 28.568C59.9823 29 60.9983 29.24 62.0383 29.288C61.5263 29.256 61.0143 29.168 60.5023 29.024C59.9743 28.864 59.4463 28.672 58.9183 28.448C58.4063 28.208 57.9103 27.944 57.4303 27.656C56.9663 27.352 56.5183 27.048 56.0863 26.744L56.4463 26.432C56.3983 26.416 56.3103 26.36 56.1823 26.264C56.0543 26.168 55.9263 26.048 55.7983 25.904C55.6863 25.76 55.5823 25.608 55.4863 25.448C55.3903 25.288 55.3423 25.136 55.3423 24.992C55.3423 24.832 55.3743 24.728 55.4383 24.68C55.5023 24.632 55.5743 24.608 55.6543 24.608C55.7343 24.608 55.9023 24.664 56.1583 24.776C56.4143 24.888 56.7263 25.008 57.0943 25.136ZM62.3983 27.584C61.8383 27.584 61.2143 27.472 60.5263 27.248C59.8543 27.008 59.2143 26.704 58.6063 26.336C59.1023 26.672 59.6543 26.976 60.2623 27.248C60.8703 27.504 61.5743 27.632 62.3743 27.632C63.4463 27.632 64.2943 27.304 64.9183 26.648C65.5583 25.992 65.8783 25.112 65.8783 24.008V23.768C65.7983 23.256 65.6223 22.84 65.3503 22.52C65.0943 22.184 64.6943 22 64.1503 21.968C64.4863 22.032 64.7583 22.136 64.9663 22.28C65.1903 22.424 65.3583 22.6 65.4703 22.808C65.5983 23 65.6863 23.216 65.7343 23.456C65.7823 23.696 65.8063 23.944 65.8063 24.2C65.7423 25.256 65.4063 26.088 64.7983 26.696C64.1903 27.288 63.3903 27.584 62.3983 27.584ZM65.4463 28.52C65.8463 28.264 66.1663 27.952 66.4063 27.584C66.6463 27.216 66.8543 26.832 67.0303 26.432C66.6943 27.104 66.2303 27.696 65.6383 28.208C65.0623 28.72 64.3743 29.04 63.5743 29.168C63.8783 29.12 64.1903 29.056 64.5103 28.976C64.8463 28.88 65.1583 28.728 65.4463 28.52ZM67.7263 24.008C67.7263 23.832 67.6943 23.664 67.6303 23.504C67.5823 23.376 67.5423 23.24 67.5103 23.096L67.5343 23.408C67.5503 23.536 67.5583 23.712 67.5583 23.936C67.5583 24.368 67.5103 24.784 67.4143 25.184C67.3183 25.584 67.1983 25.976 67.0543 26.36C67.1983 26.008 67.3343 25.64 67.4623 25.256C67.6063 24.856 67.6943 24.44 67.7263 24.008ZM67.5103 23.024C67.5103 23.04 67.5103 23.064 67.5103 23.096C67.5103 23.064 67.5103 23.04 67.5103 23.024ZM63.3103 26.96C63.2943 26.96 63.2783 26.96 63.2623 26.96C63.2783 26.96 63.2943 26.96 63.3103 26.96ZM76.8842 26.96C76.7882 26.96 76.6922 27.008 76.5962 27.104C76.2602 27.232 75.9082 27.344 75.5402 27.44C75.1882 27.52 74.8202 27.56 74.4362 27.56C73.3482 27.56 72.5322 27.248 71.9882 26.624C71.4442 25.984 71.1722 25.064 71.1722 23.864C71.1722 23.288 71.1962 22.712 71.2442 22.136C71.2922 21.576 71.3242 21.056 71.3402 20.576C71.2922 21.072 71.2362 21.568 71.1722 22.064C71.0922 22.592 71.0522 23.144 71.0522 23.72C71.0522 24.008 71.0762 24.376 71.1242 24.824C71.1882 25.272 71.3322 25.712 71.5562 26.144C71.7802 26.56 72.1242 26.928 72.5882 27.248C73.0522 27.552 73.6922 27.704 74.5082 27.704C74.8922 27.704 75.2602 27.664 75.6122 27.584C75.9802 27.488 76.3322 27.376 76.6682 27.248C76.4442 27.52 76.1402 27.736 75.7562 27.896C75.3882 28.056 74.9482 28.136 74.4362 28.136C73.7802 28.136 73.1402 28 72.5162 27.728C71.9082 27.456 71.4442 27 71.1242 26.36L71.2682 26.096C70.9802 25.584 70.8202 25.128 70.7882 24.728C70.7562 24.312 70.7242 23.904 70.6922 23.504L71.1002 19.304C71.1802 18.584 71.2362 17.864 71.2682 17.144L71.1962 17.096C71.0682 17.848 70.9642 18.568 70.8842 19.256C70.8042 19.928 70.7402 20.592 70.6922 21.248V20.624C70.7882 19.888 70.8762 19.168 70.9562 18.464C71.0362 17.744 71.1402 17.016 71.2682 16.28C71.3962 15.544 71.5562 14.776 71.7482 13.976C71.9562 13.176 72.2282 12.32 72.5642 11.408C73.0122 10.8 73.2762 10.2 73.3562 9.608C73.4042 9.608 73.4522 9.616 73.5002 9.632C73.5482 9.648 73.6442 9.656 73.7882 9.656C73.8842 9.656 73.9642 9.68 74.0282 9.728C74.1082 9.76 74.1482 9.84 74.1482 9.968C74.1482 10.112 74.1002 10.328 74.0042 10.616C74.0362 10.616 74.0842 10.632 74.1482 10.664C74.2122 10.68 74.2602 10.688 74.2922 10.688C74.5162 10.304 74.7162 9.976 74.8922 9.704C75.0842 9.432 75.2682 9.296 75.4442 9.296C75.5562 9.296 75.6522 9.368 75.7322 9.512C75.8282 9.64 75.8762 9.856 75.8762 10.16C75.8442 10.736 75.7482 11.28 75.5882 11.792C75.4442 12.304 75.2842 12.8 75.1082 13.28C74.9322 13.76 74.7562 14.248 74.5802 14.744C74.4202 15.24 74.3002 15.76 74.2202 16.304C74.1242 16.928 74.0282 17.568 73.9322 18.224C73.8362 18.864 73.7482 19.504 73.6682 20.144C73.5882 20.784 73.5082 21.4 73.4282 21.992C73.3642 22.584 73.3162 23.136 73.2842 23.648C73.2842 24.112 73.3562 24.592 73.5002 25.088C73.5802 25.216 73.6522 25.312 73.7162 25.376C73.7802 25.424 73.8922 25.448 74.0522 25.448C74.2442 25.448 74.4522 25.424 74.6762 25.376C74.9162 25.328 75.1242 25.304 75.3002 25.304C75.4122 25.304 75.4922 25.32 75.5402 25.352C75.5882 25.384 75.6282 25.44 75.6602 25.52C75.4362 25.648 75.1962 25.744 74.9402 25.808C74.6842 25.872 74.4442 25.904 74.2202 25.904H73.8842C73.8202 25.904 73.7642 25.904 73.7162 25.904C73.8922 25.936 74.1162 25.952 74.3882 25.952C74.8042 25.952 75.2282 25.856 75.6602 25.664C75.6602 25.808 75.7082 25.928 75.8042 26.024C75.8522 26.008 75.9642 25.952 76.1402 25.856C76.3162 25.76 76.4682 25.712 76.5962 25.712C76.9802 25.712 77.1722 25.872 77.1722 26.192C77.1722 26.24 77.1562 26.312 77.1242 26.408C77.0922 26.504 77.0122 26.688 76.8842 26.96ZM70.5242 23.744C70.5242 23.632 70.5242 23.488 70.5242 23.312C70.5402 23.136 70.5562 22.96 70.5722 22.784L70.6202 22.232C70.6362 22.04 70.6522 21.872 70.6682 21.728C70.6522 21.968 70.6362 22.272 70.6202 22.64C70.6202 22.992 70.6202 23.256 70.6202 23.432V24.392C70.6202 24.52 70.6202 24.656 70.6202 24.8C70.6362 24.944 70.6522 25.08 70.6682 25.208C70.6042 24.952 70.5642 24.704 70.5482 24.464C70.5322 24.208 70.5242 23.968 70.5242 23.744ZM72.8762 23.648C72.8762 23.28 72.9002 22.92 72.9482 22.568C72.9962 22.216 73.0362 21.856 73.0682 21.488C72.9882 21.856 72.9242 22.216 72.8762 22.568C72.8442 22.92 72.8122 23.28 72.7802 23.648V23.984C72.7802 24.096 72.7882 24.216 72.8042 24.344V24.176C72.8042 24.096 72.8122 24.008 72.8282 23.912C72.8442 23.816 72.8602 23.728 72.8762 23.648ZM70.6682 21.704C70.6682 21.672 70.6682 21.648 70.6682 21.632C70.6842 21.616 70.6922 21.6 70.6922 21.584C70.6922 21.648 70.6842 21.688 70.6682 21.704ZM87.2685 22.712C86.8365 22.712 86.5085 22.704 86.2845 22.688C86.0765 22.672 85.8845 22.664 85.7085 22.664C85.2285 22.664 84.8045 22.688 84.4365 22.736C84.0685 22.784 83.7565 22.88 83.5005 23.024C83.2445 23.168 83.0525 23.376 82.9245 23.648C82.7965 23.92 82.7325 24.28 82.7325 24.728C82.7325 25.384 82.8045 25.872 82.9485 26.192C83.1085 26.496 83.3245 26.72 83.5965 26.864C83.8845 26.992 84.2285 27.072 84.6285 27.104C85.0285 27.136 85.4765 27.208 85.9725 27.32C86.2605 27.352 86.5485 27.376 86.8365 27.392C87.1245 27.392 87.4125 27.392 87.7005 27.392H89.4285C88.6285 27.344 87.8285 27.32 87.0285 27.32C86.2445 27.304 85.5325 27.232 84.8925 27.104C84.2685 26.976 83.7565 26.752 83.3565 26.432C82.9725 26.112 82.7805 25.624 82.7805 24.968C82.7805 24.44 82.8445 24.04 82.9725 23.768C83.1165 23.48 83.3005 23.272 83.5245 23.144C83.7645 23 84.0445 22.92 84.3645 22.904C84.6845 22.872 85.0285 22.856 85.3965 22.856C85.8445 22.856 86.3005 22.88 86.7645 22.928C86.3965 23.04 86.0205 23.128 85.6365 23.192C85.2685 23.24 84.9245 23.296 84.6045 23.36C84.2845 23.408 84.0045 23.48 83.7645 23.576C83.5405 23.656 83.3885 23.776 83.3085 23.936V25.016L83.1165 25.112C83.1805 25.512 83.2365 25.816 83.2845 26.024C83.3485 26.216 83.5085 26.368 83.7645 26.48C84.0205 26.576 84.4285 26.656 84.9885 26.72C85.5645 26.784 86.3965 26.888 87.4845 27.032H89.2125C89.5165 27.032 89.6925 27.024 89.7405 27.008C89.8045 26.976 89.8445 26.96 89.8605 26.96L89.6445 25.664C89.6125 25.344 89.5725 25.056 89.5245 24.8C89.4765 24.544 89.4125 24.272 89.3325 23.984C89.3165 24.032 89.2685 24.056 89.1885 24.056C89.2685 24.328 89.3325 24.616 89.3805 24.92C89.4445 25.224 89.4925 25.512 89.5245 25.784C89.5725 26.056 89.6045 26.288 89.6205 26.48C89.6525 26.672 89.6845 26.784 89.7165 26.816L89.5725 26.864C89.5405 26.88 89.4925 26.888 89.4285 26.888H89.2845C89.1725 26.888 89.0445 26.88 88.9005 26.864C88.7565 26.832 88.5725 26.816 88.3485 26.816H87.5565C86.9325 26.816 86.3565 26.784 85.8285 26.72C85.3325 26.656 84.9005 26.576 84.5325 26.48C84.9005 26.56 85.3485 26.624 85.8765 26.672C86.4365 26.736 86.9565 26.768 87.4365 26.768C87.6445 26.768 87.8605 26.768 88.0845 26.768C88.3245 26.752 88.5805 26.744 88.8525 26.744H89.6445C89.5965 26.696 89.5405 26.672 89.4765 26.672H89.4285C89.3645 25.568 89.2205 24.512 88.9965 23.504C88.7725 22.496 88.4125 21.616 87.9165 20.864C87.4205 20.096 86.7725 19.488 85.9725 19.04C85.1725 18.576 84.1725 18.344 82.9725 18.344C82.6365 18.344 82.3005 18.368 81.9645 18.416C81.6285 18.464 81.2845 18.528 80.9325 18.608C80.9645 18.576 80.9805 18.544 80.9805 18.512C80.9805 18.432 80.9485 18.36 80.8845 18.296C80.8205 18.216 80.7885 18.136 80.7885 18.056C80.7885 17.96 80.8845 17.872 81.0765 17.792C81.2845 17.696 81.7165 17.608 82.3725 17.528C82.3405 17.496 82.3165 17.448 82.3005 17.384C82.3005 17.32 82.3005 17.272 82.3005 17.24C81.4365 17.24 80.7645 17.224 80.2845 17.192C79.8045 17.144 79.5645 17.024 79.5645 16.832C79.5645 16.752 79.6605 16.64 79.8525 16.496C80.0605 16.352 80.3485 16.216 80.7165 16.088C81.0845 15.944 81.5245 15.824 82.0365 15.728C82.5645 15.616 83.1485 15.56 83.7885 15.56C85.0205 15.56 86.0765 15.752 86.9565 16.136C87.8365 16.504 88.5725 17 89.1645 17.624C89.7725 18.232 90.2605 18.928 90.6285 19.712C91.0125 20.496 91.3165 21.288 91.5405 22.088C91.7805 22.872 91.9565 23.64 92.0685 24.392C92.1805 25.128 92.2845 25.768 92.3805 26.312C92.3805 26.408 92.3805 26.504 92.3805 26.6C92.3965 26.696 92.4045 26.808 92.4045 26.936C92.4045 27.4 92.3165 27.808 92.1405 28.16C91.9805 28.496 91.7485 28.776 91.4445 29C91.1565 29.24 90.8125 29.416 90.4125 29.528C90.0285 29.656 89.6125 29.72 89.1645 29.72C88.8125 29.72 88.3565 29.712 87.7965 29.696C87.2365 29.68 86.7005 29.632 86.1885 29.552C85.8525 29.472 85.4845 29.408 85.0845 29.36C84.6845 29.328 84.2765 29.264 83.8605 29.168C83.4445 29.072 83.0365 28.936 82.6365 28.76C82.2525 28.584 81.9005 28.32 81.5805 27.968C81.2765 27.6 81.0285 27.128 80.8365 26.552C80.6605 25.976 80.5725 25.248 80.5725 24.368C80.5725 23.536 80.7645 22.872 81.1485 22.376C81.5325 21.864 81.9885 21.472 82.5165 21.2C83.0605 20.912 83.6125 20.728 84.1725 20.648C84.7325 20.552 85.1885 20.504 85.5405 20.504C85.9885 20.504 86.2845 20.536 86.4285 20.6C86.5725 20.664 86.6445 20.728 86.6445 20.792C86.6445 20.84 86.6365 20.88 86.6205 20.912C86.2205 20.912 85.7085 20.928 85.0845 20.96C84.4605 20.992 83.8525 21.096 83.2605 21.272C82.6845 21.448 82.1885 21.72 81.7725 22.088C81.3565 22.44 81.1485 22.944 81.1485 23.6C81.2925 23.008 81.5325 22.544 81.8685 22.208C82.2205 21.856 82.6205 21.6 83.0685 21.44C83.5165 21.264 83.9725 21.16 84.4365 21.128C84.9165 21.08 85.3485 21.056 85.7325 21.056H86.5485C86.4845 21.12 86.4525 21.184 86.4525 21.248C86.4525 21.312 86.4845 21.368 86.5485 21.416H87.4845C87.7405 21.464 87.9245 21.552 88.0365 21.68C88.1485 21.792 88.2045 21.896 88.2045 21.992C88.2045 22.136 88.1325 22.264 87.9885 22.376C87.8445 22.488 87.6045 22.6 87.2685 22.712ZM83.2365 28.52C83.6845 28.696 84.1405 28.832 84.6045 28.928C85.0845 29.024 85.5565 29.088 86.0205 29.12C86.4845 29.168 86.9165 29.192 87.3165 29.192C86.9965 29.16 86.6765 29.104 86.3565 29.024C86.0205 28.944 85.7245 28.872 85.4685 28.808C85.1965 28.744 84.9245 28.704 84.6525 28.688C84.3965 28.656 84.1245 28.616 83.8365 28.568C83.5645 28.52 83.2845 28.448 82.9965 28.352C82.7085 28.24 82.4205 28.08 82.1325 27.872C82.4365 28.144 82.8045 28.36 83.2365 28.52ZM83.4765 26C83.4605 25.984 83.5085 26.032 83.6205 26.144C83.7165 26.24 83.8445 26.312 84.0045 26.36C83.9245 26.328 83.8045 26.288 83.6445 26.24C83.4685 26.176 83.3805 26.08 83.3805 25.952L83.4765 26ZM84.0765 26.36C84.0605 26.36 84.0365 26.36 84.0045 26.36C84.0205 26.36 84.0445 26.36 84.0765 26.36ZM94.197 27.392C94.197 27.296 94.253 27.208 94.365 27.128C94.477 27.048 94.605 26.976 94.749 26.912C94.909 26.848 95.061 26.792 95.205 26.744C95.365 26.696 95.485 26.656 95.565 26.624C96.333 26.72 97.101 26.8 97.869 26.864C98.637 26.928 99.405 26.96 100.173 26.96C100.461 26.96 100.861 26.96 101.373 26.96C101.885 26.944 102.445 26.912 103.053 26.864C103.661 26.816 104.277 26.744 104.901 26.648C105.525 26.536 106.093 26.384 106.605 26.192C107.117 26 107.533 25.76 107.853 25.472C108.173 25.184 108.333 24.824 108.333 24.392C108.333 24.04 108.253 23.728 108.093 23.456C107.949 23.168 107.749 22.92 107.493 22.712C107.253 22.488 106.981 22.304 106.677 22.16C106.565 22.096 106.445 22.04 106.317 21.992C106.445 22.056 106.565 22.12 106.677 22.184C106.965 22.344 107.221 22.544 107.445 22.784C107.685 23.008 107.877 23.264 108.021 23.552C108.165 23.824 108.237 24.136 108.237 24.488C108.237 24.872 108.093 25.2 107.805 25.472C107.533 25.728 107.173 25.944 106.725 26.12C106.293 26.296 105.805 26.432 105.261 26.528C104.733 26.624 104.205 26.696 103.677 26.744C103.149 26.792 102.661 26.824 102.213 26.84C101.765 26.84 101.413 26.84 101.157 26.84C100.341 26.84 99.517 26.816 98.685 26.768C97.869 26.704 97.053 26.632 96.237 26.552C96.525 26.472 96.813 26.416 97.101 26.384C97.405 26.336 97.709 26.312 98.013 26.312C98.525 26.312 99.029 26.32 99.525 26.336C100.021 26.336 100.517 26.336 101.013 26.336C101.605 26.336 102.189 26.328 102.765 26.312C103.341 26.28 103.933 26.216 104.541 26.12L104.613 26.408C104.853 26.36 105.157 26.288 105.525 26.192C105.893 26.08 106.245 25.944 106.581 25.784C106.933 25.624 107.229 25.424 107.469 25.184C107.725 24.944 107.853 24.664 107.853 24.344C107.853 23.88 107.685 23.472 107.349 23.12C107.013 22.768 106.581 22.456 106.053 22.184C105.541 21.896 104.957 21.648 104.301 21.44C103.645 21.232 102.997 21.048 102.357 20.888C101.733 20.728 101.141 20.584 100.581 20.456C100.021 20.328 99.573 20.208 99.237 20.096V20.24C99.573 20.368 100.013 20.504 100.557 20.648C101.101 20.776 101.685 20.92 102.309 21.08C102.949 21.24 103.589 21.424 104.229 21.632C104.869 21.824 105.445 22.056 105.957 22.328C106.485 22.6 106.909 22.912 107.229 23.264C107.565 23.616 107.733 24.016 107.733 24.464C107.733 24.72 107.613 24.944 107.373 25.136C107.133 25.328 106.845 25.496 106.509 25.64C106.189 25.768 105.861 25.872 105.525 25.952C105.189 26.032 104.933 26.088 104.757 26.12C104.965 26.072 105.229 26.008 105.549 25.928C105.885 25.832 106.205 25.712 106.509 25.568C106.829 25.424 107.101 25.256 107.325 25.064C107.549 24.856 107.661 24.616 107.661 24.344C107.661 23.896 107.485 23.52 107.133 23.216C106.781 22.912 106.317 22.64 105.741 22.4C105.165 22.16 104.509 21.944 103.773 21.752C103.037 21.56 102.277 21.352 101.493 21.128C100.725 20.904 99.973 20.648 99.237 20.36C98.501 20.072 97.845 19.712 97.269 19.28C96.693 18.848 96.229 18.336 95.877 17.744C95.525 17.152 95.349 16.44 95.349 15.608C95.349 14.792 95.541 14.104 95.925 13.544C96.325 12.968 96.829 12.504 97.437 12.152C98.061 11.784 98.741 11.52 99.477 11.36C100.213 11.2 100.925 11.12 101.613 11.12C102.621 11.12 103.605 11.264 104.565 11.552C105.541 11.84 106.461 12.24 107.325 12.752C107.229 12.784 107.173 12.832 107.157 12.896C107.141 12.944 107.125 13 107.109 13.064C107.109 13.128 107.093 13.184 107.061 13.232C107.045 13.28 106.997 13.304 106.917 13.304C106.853 13.304 106.725 13.28 106.533 13.232C106.357 13.168 106.165 13.104 105.957 13.04C105.749 12.96 105.549 12.888 105.357 12.824C105.165 12.76 105.037 12.712 104.973 12.68L104.901 12.896C105.045 12.96 105.229 13.056 105.453 13.184C105.693 13.296 105.917 13.44 106.125 13.616C106.349 13.776 106.533 13.952 106.677 14.144C106.837 14.336 106.917 14.528 106.917 14.72C106.917 14.928 106.821 15.032 106.629 15.032C106.389 15.032 106.101 14.968 105.765 14.84C105.445 14.712 105.085 14.576 104.685 14.432C104.285 14.272 103.853 14.128 103.389 14C102.941 13.872 102.485 13.808 102.021 13.808C101.717 13.808 101.357 13.84 100.941 13.904C100.541 13.952 100.149 14.056 99.765 14.216C99.397 14.36 99.085 14.568 98.829 14.84C98.573 15.096 98.445 15.424 98.445 15.824C98.445 16.192 98.613 16.504 98.949 16.76C99.301 17.016 99.757 17.248 100.317 17.456C100.893 17.664 101.541 17.864 102.261 18.056C102.981 18.248 103.717 18.464 104.469 18.704C105.237 18.928 105.981 19.192 106.701 19.496C107.421 19.8 108.061 20.168 108.621 20.6C109.197 21.032 109.653 21.544 109.989 22.136C110.341 22.728 110.517 23.424 110.517 24.224C110.517 25.008 110.357 25.672 110.037 26.216C109.717 26.76 109.293 27.216 108.765 27.584C108.237 27.936 107.637 28.216 106.965 28.424C106.293 28.616 105.597 28.768 104.877 28.88C104.173 28.976 103.469 29.032 102.765 29.048C102.077 29.08 101.453 29.096 100.893 29.096H98.493C98.349 29.096 98.149 29.088 97.893 29.072C97.653 29.072 97.413 29.056 97.173 29.024C96.933 29.008 96.725 28.968 96.549 28.904C96.373 28.84 96.285 28.76 96.285 28.664L96.309 28.544C96.965 28.576 97.613 28.608 98.253 28.64C98.893 28.656 99.541 28.664 100.197 28.664C100.805 28.664 101.413 28.664 102.021 28.664C102.565 28.648 103.109 28.616 103.653 28.568C103.381 28.584 103.109 28.6 102.837 28.616C102.501 28.616 102.173 28.616 101.853 28.616H100.893C99.389 28.616 97.909 28.568 96.453 28.472C96.485 28.344 96.501 28.256 96.501 28.208C96.501 28.144 96.485 28.08 96.453 28.016C96.421 28.016 96.373 28.024 96.309 28.04C96.261 28.04 96.197 28.04 96.117 28.04C95.941 28.04 95.741 28.032 95.517 28.016C95.309 28 95.101 27.968 94.893 27.92C94.701 27.872 94.533 27.808 94.389 27.728C94.261 27.632 94.197 27.52 94.197 27.392ZM108.933 26.768C108.661 27.008 108.373 27.208 108.069 27.368C107.797 27.512 107.517 27.648 107.229 27.776C107.517 27.68 107.797 27.568 108.069 27.44C108.373 27.312 108.661 27.088 108.933 26.768ZM122.684 27.848C122.684 27.32 122.644 26.784 122.564 26.24C122.5 25.696 122.468 25.168 122.468 24.656V24.008C122.388 23.384 122.292 22.656 122.18 21.824C122.068 20.976 121.924 20.176 121.748 19.424C121.572 18.672 121.356 18.032 121.1 17.504C120.844 16.976 120.524 16.712 120.14 16.712C119.58 16.712 119.004 16.976 118.412 17.504C117.82 18.016 117.324 18.768 116.924 19.76C116.732 20.32 116.596 20.912 116.516 21.536C116.452 22.16 116.396 22.816 116.348 23.504C116.3 24.192 116.252 24.904 116.204 25.64C116.172 26.36 116.1 27.112 115.988 27.896C115.956 27.976 115.924 28.072 115.892 28.184C115.876 28.296 115.86 28.392 115.844 28.472H112.892V26.528C112.876 26.368 112.86 26.176 112.844 25.952C112.828 25.728 112.804 25.504 112.772 25.28C112.756 25.04 112.74 24.808 112.724 24.584C112.708 24.36 112.692 24.168 112.676 24.008C112.676 22.712 112.62 21.416 112.508 20.12C112.412 18.824 112.348 17.504 112.316 16.16L112.868 16.04C112.916 16.04 112.964 16.088 113.012 16.184C113.076 16.264 113.124 16.424 113.156 16.664C113.204 16.904 113.244 17.248 113.276 17.696C113.324 18.128 113.364 18.696 113.396 19.4C113.412 19.4 113.436 19.392 113.468 19.376C113.532 19.344 113.58 19.328 113.612 19.328C113.612 19.216 113.604 19.104 113.588 18.992C113.588 18.88 113.588 18.768 113.588 18.656C113.588 17.28 113.676 16.224 113.852 15.488C114.044 14.736 114.204 14.36 114.332 14.36C114.428 14.36 114.524 14.568 114.62 14.984C114.716 15.4 114.82 16.056 114.932 16.952C115.204 16.52 115.516 16.104 115.868 15.704C116.22 15.304 116.612 14.96 117.044 14.672C117.492 14.368 117.972 14.128 118.484 13.952C118.996 13.776 119.556 13.688 120.164 13.688C120.692 13.688 121.156 13.8 121.556 14.024C121.956 14.248 122.308 14.544 122.612 14.912C122.932 15.264 123.196 15.672 123.404 16.136C123.628 16.584 123.82 17.04 123.98 17.504C124.14 17.952 124.268 18.392 124.364 18.824C124.476 19.24 124.572 19.592 124.652 19.88C124.652 19.912 124.66 19.952 124.676 20C124.692 20.032 124.708 20.064 124.724 20.096C124.916 19.584 125.156 19 125.444 18.344C125.732 17.672 126.092 17.04 126.524 16.448C126.956 15.856 127.46 15.36 128.036 14.96C128.628 14.544 129.308 14.336 130.076 14.336C130.828 14.336 131.468 14.536 131.996 14.936C132.524 15.336 132.964 15.848 133.316 16.472C133.684 17.096 133.972 17.792 134.18 18.56C134.404 19.312 134.572 20.056 134.684 20.792C134.796 21.512 134.868 22.176 134.9 22.784C134.932 23.392 134.948 23.856 134.948 24.176C134.948 24.688 134.924 25.064 134.876 25.304C134.844 25.544 134.74 25.664 134.564 25.664C134.532 25.024 134.5 24.376 134.468 23.72C134.452 23.064 134.404 22.408 134.324 21.752C134.26 21.08 134.164 20.424 134.036 19.784C133.908 19.16 133.74 18.544 133.532 17.936C133.932 19.2 134.164 20.464 134.228 21.728C134.308 23.008 134.372 24.272 134.42 25.52C134.308 25.408 134.22 25.352 134.156 25.352C134.108 25.352 134.076 25.384 134.06 25.448V26.168C134.06 26.376 134.06 26.592 134.06 26.816C134.076 27.04 134.1 27.232 134.132 27.392C134.1 28.048 134.068 28.52 134.036 28.808C134.02 29.08 133.964 29.256 133.868 29.336C133.74 29.336 133.628 29.264 133.532 29.12C133.436 28.976 133.34 28.792 133.244 28.568C133.164 28.344 133.084 28.096 133.004 27.824C132.924 27.552 132.844 27.288 132.764 27.032V26.384C132.764 25.68 132.756 24.944 132.74 24.176C132.74 23.408 132.708 22.664 132.644 21.944C132.596 21.208 132.508 20.512 132.38 19.856C132.268 19.2 132.108 18.624 131.9 18.128C131.708 17.616 131.452 17.216 131.132 16.928C130.828 16.64 130.452 16.496 130.004 16.496C129.636 16.496 129.3 16.592 128.996 16.784C128.82 16.896 128.644 17.04 128.468 17.216C128.644 17.056 128.828 16.92 129.02 16.808C129.324 16.616 129.652 16.52 130.004 16.52H130.1C130.5 16.52 130.836 16.68 131.108 17C131.396 17.304 131.628 17.712 131.804 18.224C131.996 18.736 132.14 19.32 132.236 19.976C132.332 20.632 132.404 21.312 132.452 22.016C132.516 22.72 132.556 23.424 132.572 24.128C132.588 24.816 132.604 25.448 132.62 26.024C132.524 25.576 132.436 25.048 132.356 24.44C132.292 23.816 132.22 23.168 132.14 22.496C132.076 21.824 131.988 21.16 131.876 20.504C131.78 19.848 131.652 19.264 131.492 18.752C131.332 18.224 131.132 17.8 130.892 17.48C130.652 17.16 130.356 17 130.004 17C129.86 17 129.732 17.016 129.62 17.048C129.508 17.064 129.364 17.144 129.188 17.288L128.948 17.168C128.404 17.648 127.948 18.288 127.58 19.088C127.212 19.888 126.9 20.752 126.644 21.68C126.388 22.592 126.172 23.528 125.996 24.488C125.82 25.448 125.652 26.336 125.492 27.152V28.064C125.748 26.8 125.98 25.56 126.188 24.344C126.412 23.112 126.732 21.92 127.148 20.768C126.828 21.76 126.58 22.784 126.404 23.84C126.228 24.896 126.028 25.976 125.804 27.08C125.804 27.192 125.78 27.344 125.732 27.536C125.684 27.728 125.604 28.016 125.492 28.4L122.852 28.136L122.684 27.848ZM122.948 26.648C122.9 26.216 122.852 25.664 122.804 24.992C122.772 24.32 122.724 23.608 122.66 22.856C122.596 22.104 122.508 21.344 122.396 20.576C122.284 19.808 122.124 19.12 121.916 18.512C121.724 17.888 121.476 17.384 121.172 17C120.884 16.616 120.516 16.424 120.068 16.424C119.924 16.424 119.772 16.456 119.612 16.52C119.452 16.584 119.3 16.656 119.156 16.736C119.204 16.72 119.244 16.712 119.276 16.712H119.3C119.3 16.728 119.276 16.76 119.228 16.808C119.66 16.664 119.996 16.592 120.236 16.592C120.54 16.704 120.812 16.952 121.052 17.336C121.292 17.72 121.492 18.184 121.652 18.728C121.828 19.256 121.972 19.832 122.084 20.456C122.212 21.08 122.308 21.68 122.372 22.256C122.436 22.816 122.484 23.32 122.516 23.768C122.548 24.216 122.564 24.536 122.564 24.728C122.612 25.208 122.652 25.68 122.684 26.144C122.732 26.608 122.756 27.072 122.756 27.536L122.948 26.648ZM124.964 20.192C124.964 20.208 124.98 20.28 125.012 20.408C125.044 20.52 125.068 20.592 125.084 20.624C125.132 20.464 125.236 20.208 125.396 19.856C125.556 19.488 125.732 19.104 125.924 18.704C126.116 18.288 126.3 17.904 126.476 17.552C126.54 17.408 126.596 17.28 126.644 17.168C126.596 17.264 126.532 17.368 126.452 17.48C126.276 17.8 126.084 18.136 125.876 18.488C125.668 18.824 125.476 19.152 125.3 19.472C125.124 19.792 125.012 20.032 124.964 20.192ZM126.86 19.904C126.54 20.72 126.26 21.584 126.02 22.496C125.78 23.392 125.564 24.32 125.372 25.28L125.42 25.664C125.628 24.512 125.868 23.352 126.14 22.184C126.396 21.16 126.724 20.192 127.124 19.28C127.108 19.328 127.092 19.368 127.076 19.4C126.996 19.56 126.924 19.728 126.86 19.904ZM122.948 23.168C122.98 23.424 122.996 23.672 122.996 23.912C123.012 24.152 123.028 24.376 123.044 24.584L123.116 25.736L123.14 25.616C123.124 25.392 123.116 25.176 123.116 24.968V24.368L122.948 23.168ZM130.82 14.936C130.532 14.856 130.26 14.816 130.004 14.816H129.74C129.628 14.816 129.572 14.824 129.572 14.84H129.596C129.852 14.904 130.092 14.936 130.316 14.936H130.82ZM127.268 20.432C127.348 20.208 127.42 19.992 127.484 19.784C127.564 19.576 127.628 19.432 127.676 19.352C127.676 19.384 127.66 19.448 127.628 19.544C127.596 19.656 127.532 19.824 127.436 20.048L127.268 20.432ZM132.476 15.944C132.396 15.848 132.292 15.752 132.164 15.656C132.068 15.592 131.98 15.536 131.9 15.488C132.092 15.616 132.284 15.768 132.476 15.944ZM126.764 16.952C126.732 16.984 126.708 17.032 126.692 17.096C126.724 17.048 126.748 17 126.764 16.952ZM145.769 22.712C145.337 22.712 145.009 22.704 144.785 22.688C144.577 22.672 144.385 22.664 144.209 22.664C143.729 22.664 143.305 22.688 142.937 22.736C142.569 22.784 142.257 22.88 142.001 23.024C141.745 23.168 141.553 23.376 141.425 23.648C141.297 23.92 141.233 24.28 141.233 24.728C141.233 25.384 141.305 25.872 141.449 26.192C141.609 26.496 141.825 26.72 142.097 26.864C142.385 26.992 142.729 27.072 143.129 27.104C143.529 27.136 143.977 27.208 144.473 27.32C144.761 27.352 145.049 27.376 145.337 27.392C145.625 27.392 145.913 27.392 146.201 27.392H147.929C147.129 27.344 146.329 27.32 145.529 27.32C144.745 27.304 144.033 27.232 143.393 27.104C142.769 26.976 142.257 26.752 141.857 26.432C141.473 26.112 141.281 25.624 141.281 24.968C141.281 24.44 141.345 24.04 141.473 23.768C141.617 23.48 141.801 23.272 142.025 23.144C142.265 23 142.545 22.92 142.865 22.904C143.185 22.872 143.529 22.856 143.897 22.856C144.345 22.856 144.801 22.88 145.265 22.928C144.897 23.04 144.521 23.128 144.137 23.192C143.769 23.24 143.425 23.296 143.105 23.36C142.785 23.408 142.505 23.48 142.265 23.576C142.041 23.656 141.889 23.776 141.809 23.936V25.016L141.617 25.112C141.681 25.512 141.737 25.816 141.785 26.024C141.849 26.216 142.009 26.368 142.265 26.48C142.521 26.576 142.929 26.656 143.489 26.72C144.065 26.784 144.897 26.888 145.985 27.032H147.713C148.017 27.032 148.193 27.024 148.241 27.008C148.305 26.976 148.345 26.96 148.361 26.96L148.145 25.664C148.113 25.344 148.073 25.056 148.025 24.8C147.977 24.544 147.913 24.272 147.833 23.984C147.817 24.032 147.769 24.056 147.689 24.056C147.769 24.328 147.833 24.616 147.881 24.92C147.945 25.224 147.993 25.512 148.025 25.784C148.073 26.056 148.105 26.288 148.121 26.48C148.153 26.672 148.185 26.784 148.217 26.816L148.073 26.864C148.041 26.88 147.993 26.888 147.929 26.888H147.785C147.673 26.888 147.545 26.88 147.401 26.864C147.257 26.832 147.073 26.816 146.849 26.816H146.057C145.433 26.816 144.857 26.784 144.329 26.72C143.833 26.656 143.401 26.576 143.033 26.48C143.401 26.56 143.849 26.624 144.377 26.672C144.937 26.736 145.457 26.768 145.937 26.768C146.145 26.768 146.361 26.768 146.585 26.768C146.825 26.752 147.081 26.744 147.353 26.744H148.145C148.097 26.696 148.041 26.672 147.977 26.672H147.929C147.865 25.568 147.721 24.512 147.497 23.504C147.273 22.496 146.913 21.616 146.417 20.864C145.921 20.096 145.273 19.488 144.473 19.04C143.673 18.576 142.673 18.344 141.473 18.344C141.137 18.344 140.801 18.368 140.465 18.416C140.129 18.464 139.785 18.528 139.433 18.608C139.465 18.576 139.481 18.544 139.481 18.512C139.481 18.432 139.449 18.36 139.385 18.296C139.321 18.216 139.289 18.136 139.289 18.056C139.289 17.96 139.385 17.872 139.577 17.792C139.785 17.696 140.217 17.608 140.873 17.528C140.841 17.496 140.817 17.448 140.801 17.384C140.801 17.32 140.801 17.272 140.801 17.24C139.937 17.24 139.265 17.224 138.785 17.192C138.305 17.144 138.065 17.024 138.065 16.832C138.065 16.752 138.161 16.64 138.353 16.496C138.561 16.352 138.849 16.216 139.217 16.088C139.585 15.944 140.025 15.824 140.537 15.728C141.065 15.616 141.649 15.56 142.289 15.56C143.521 15.56 144.577 15.752 145.457 16.136C146.337 16.504 147.073 17 147.665 17.624C148.273 18.232 148.761 18.928 149.129 19.712C149.513 20.496 149.817 21.288 150.041 22.088C150.281 22.872 150.457 23.64 150.569 24.392C150.681 25.128 150.785 25.768 150.881 26.312C150.881 26.408 150.881 26.504 150.881 26.6C150.897 26.696 150.905 26.808 150.905 26.936C150.905 27.4 150.817 27.808 150.641 28.16C150.481 28.496 150.249 28.776 149.945 29C149.657 29.24 149.313 29.416 148.913 29.528C148.529 29.656 148.113 29.72 147.665 29.72C147.313 29.72 146.857 29.712 146.297 29.696C145.737 29.68 145.201 29.632 144.689 29.552C144.353 29.472 143.985 29.408 143.585 29.36C143.185 29.328 142.777 29.264 142.361 29.168C141.945 29.072 141.537 28.936 141.137 28.76C140.753 28.584 140.401 28.32 140.081 27.968C139.777 27.6 139.529 27.128 139.337 26.552C139.161 25.976 139.073 25.248 139.073 24.368C139.073 23.536 139.265 22.872 139.649 22.376C140.033 21.864 140.489 21.472 141.017 21.2C141.561 20.912 142.113 20.728 142.673 20.648C143.233 20.552 143.689 20.504 144.041 20.504C144.489 20.504 144.785 20.536 144.929 20.6C145.073 20.664 145.145 20.728 145.145 20.792C145.145 20.84 145.137 20.88 145.121 20.912C144.721 20.912 144.209 20.928 143.585 20.96C142.961 20.992 142.353 21.096 141.761 21.272C141.185 21.448 140.689 21.72 140.273 22.088C139.857 22.44 139.649 22.944 139.649 23.6C139.793 23.008 140.033 22.544 140.369 22.208C140.721 21.856 141.121 21.6 141.569 21.44C142.017 21.264 142.473 21.16 142.937 21.128C143.417 21.08 143.849 21.056 144.233 21.056H145.049C144.985 21.12 144.953 21.184 144.953 21.248C144.953 21.312 144.985 21.368 145.049 21.416H145.985C146.241 21.464 146.425 21.552 146.537 21.68C146.649 21.792 146.705 21.896 146.705 21.992C146.705 22.136 146.633 22.264 146.489 22.376C146.345 22.488 146.105 22.6 145.769 22.712ZM141.737 28.52C142.185 28.696 142.641 28.832 143.105 28.928C143.585 29.024 144.057 29.088 144.521 29.12C144.985 29.168 145.417 29.192 145.817 29.192C145.497 29.16 145.177 29.104 144.857 29.024C144.521 28.944 144.225 28.872 143.969 28.808C143.697 28.744 143.425 28.704 143.153 28.688C142.897 28.656 142.625 28.616 142.337 28.568C142.065 28.52 141.785 28.448 141.497 28.352C141.209 28.24 140.921 28.08 140.633 27.872C140.937 28.144 141.305 28.36 141.737 28.52ZM141.977 26C141.961 25.984 142.009 26.032 142.121 26.144C142.217 26.24 142.345 26.312 142.505 26.36C142.425 26.328 142.305 26.288 142.145 26.24C141.969 26.176 141.881 26.08 141.881 25.952L141.977 26ZM142.577 26.36C142.561 26.36 142.537 26.36 142.505 26.36C142.521 26.36 142.545 26.36 142.577 26.36ZM157.809 29.264C157.649 29.296 157.473 29.312 157.281 29.312H156.585C156.169 29.312 155.873 29.36 155.697 29.456C155.537 29.552 155.441 29.6 155.409 29.6L155.313 29.168V28.736L155.193 26.48C155.161 26.048 155.073 25.584 154.929 25.088C154.785 24.592 154.673 24.088 154.593 23.576C154.545 23.24 154.505 22.92 154.473 22.616L154.377 21.68C154.345 21.36 154.305 21.032 154.257 20.696C154.225 20.36 154.169 20 154.089 19.616C154.089 19.52 154.089 19.424 154.089 19.328C154.105 19.232 154.113 19.136 154.113 19.04C154.113 18.544 154.073 18.056 153.993 17.576C153.913 17.096 153.801 16.624 153.657 16.16C153.769 16.112 153.873 16.072 153.969 16.04C154.065 15.992 154.153 15.968 154.233 15.968C154.313 15.968 154.401 16.064 154.497 16.256C154.593 16.432 154.697 16.808 154.809 17.384C154.841 17.384 154.889 17.376 154.953 17.36C155.017 17.328 155.065 17.312 155.097 17.312C155.081 17.04 155.041 16.752 154.977 16.448C154.913 16.128 154.849 15.824 154.785 15.536C154.721 15.248 154.657 14.992 154.593 14.768C154.545 14.528 154.521 14.336 154.521 14.192C154.521 14.16 154.521 14.12 154.521 14.072C154.537 14.024 154.577 14 154.641 14C154.721 14 154.825 14.088 154.953 14.264C155.081 14.44 155.217 14.664 155.361 14.936C155.505 15.208 155.641 15.504 155.769 15.824C155.913 16.128 156.041 16.416 156.153 16.688C156.585 15.872 157.073 15.256 157.617 14.84C158.177 14.408 158.905 14.192 159.801 14.192C160.457 14.192 160.993 14.272 161.409 14.432C161.825 14.576 162.145 14.744 162.369 14.936C162.609 15.112 162.769 15.28 162.849 15.44L162.993 15.68C162.993 15.776 162.945 15.84 162.849 15.872C162.433 15.472 161.961 15.168 161.433 14.96C160.905 14.752 160.361 14.648 159.801 14.648C159.257 14.648 158.849 14.72 158.577 14.864C158.321 14.992 158.049 15.152 157.761 15.344C158.065 15.152 158.345 15 158.601 14.888C158.873 14.776 159.265 14.72 159.777 14.72C160.337 14.72 160.873 14.832 161.385 15.056C161.897 15.264 162.337 15.536 162.705 15.872C162.625 15.904 162.553 15.944 162.489 15.992C162.441 16.024 162.417 16.08 162.417 16.16C162.497 16.16 162.585 16.216 162.681 16.328C162.777 16.424 162.865 16.544 162.945 16.688C163.025 16.832 163.089 16.984 163.137 17.144C163.201 17.288 163.233 17.408 163.233 17.504C163.233 17.776 163.129 17.912 162.921 17.912C162.761 17.912 162.569 17.856 162.345 17.744C162.297 17.728 162.193 17.64 162.033 17.48C161.889 17.32 161.705 17.16 161.481 17C161.257 16.824 161.001 16.664 160.713 16.52C160.425 16.376 160.105 16.304 159.753 16.304C159.465 16.304 159.209 16.368 158.985 16.496C158.777 16.608 158.585 16.768 158.409 16.976C158.233 17.168 158.073 17.392 157.929 17.648L157.617 18.224C157.857 17.792 158.121 17.4 158.409 17.048C158.729 16.632 159.129 16.424 159.609 16.424C160.025 16.424 160.409 16.52 160.761 16.712C161.113 16.888 161.401 17.112 161.625 17.384C161.353 17.272 161.033 17.16 160.665 17.048C160.297 16.936 159.945 16.88 159.609 16.88C159.433 16.88 159.281 16.92 159.153 17C159.025 17.08 158.913 17.184 158.817 17.312C158.737 17.424 158.657 17.552 158.577 17.696C158.513 17.84 158.441 17.976 158.361 18.104L158.049 18.152C157.777 18.616 157.553 19.16 157.377 19.784C157.217 20.392 157.137 21.032 157.137 21.704C157.137 22.104 157.153 22.464 157.185 22.784C157.233 23.104 157.297 23.432 157.377 23.768L157.665 24.512L157.617 23.816C157.585 23.272 157.553 22.792 157.521 22.376C157.489 21.944 157.473 21.472 157.473 20.96C157.505 20.496 157.569 20.056 157.665 19.64C157.745 19.288 157.865 18.96 158.025 18.656C157.833 19.04 157.705 19.48 157.641 19.976C157.561 20.52 157.521 21.096 157.521 21.704C157.521 22.184 157.545 22.64 157.593 23.072C157.641 23.504 157.697 23.936 157.761 24.368C157.841 24.8 157.921 25.248 158.001 25.712C158.081 26.16 158.145 26.656 158.193 27.2L158.265 27.656L158.409 29.024L157.809 29.264ZM158.097 18.536L158.025 18.656L158.097 18.536ZM173.366 17C173.222 17 173.022 17.024 172.766 17.072C172.526 17.12 172.278 17.176 172.022 17.24C171.782 17.304 171.558 17.368 171.35 17.432C171.158 17.496 171.038 17.544 170.99 17.576C171.406 17.512 171.79 17.44 172.142 17.36C172.494 17.264 172.878 17.216 173.294 17.216C173.214 17.36 173.11 17.472 172.982 17.552C172.854 17.632 172.71 17.696 172.55 17.744C172.406 17.776 172.246 17.808 172.07 17.84C171.894 17.856 171.71 17.888 171.518 17.936L171.35 17.72C171.046 17.832 170.814 17.904 170.654 17.936C170.494 17.952 170.326 17.96 170.15 17.96C169.958 17.96 169.758 17.96 169.55 17.96C169.358 17.944 169.142 17.936 168.902 17.936C168.902 18.016 168.894 18.08 168.878 18.128C169.246 18.128 169.558 18.128 169.814 18.128C170.07 18.112 170.382 18.08 170.75 18.032C170.398 18.096 170.086 18.144 169.814 18.176C169.558 18.208 169.246 18.224 168.878 18.224C168.814 18.592 168.758 18.952 168.71 19.304C168.662 19.656 168.638 20 168.638 20.336C168.638 20.528 168.646 20.752 168.662 21.008C168.678 21.264 168.694 21.528 168.71 21.8C168.742 22.056 168.766 22.304 168.782 22.544C168.798 22.768 168.806 22.936 168.806 23.048V24.488C168.886 24.808 169.118 25.048 169.502 25.208C169.886 25.368 170.438 25.448 171.158 25.448H171.926C172.198 25.448 172.382 25.48 172.478 25.544C172.59 25.592 172.646 25.664 172.646 25.76C172.646 25.84 172.582 25.888 172.454 25.904C172.326 25.904 172.198 25.904 172.07 25.904C171.606 25.904 171.118 25.872 170.606 25.808C170.126 25.744 169.654 25.672 169.19 25.592C169.654 25.704 170.142 25.808 170.654 25.904C171.182 25.984 171.694 26.024 172.19 26.024H172.406C172.47 26.024 172.542 26.016 172.622 26C172.622 26.08 172.622 26.152 172.622 26.216C172.638 26.28 172.662 26.352 172.694 26.432L172.886 26.384C172.934 26.368 172.99 26.36 173.054 26.36C173.118 26.344 173.166 26.32 173.198 26.288C173.71 26.336 173.966 26.512 173.966 26.816C173.966 26.992 173.918 27.136 173.822 27.248C173.726 27.36 173.606 27.448 173.462 27.512C173.318 27.576 173.158 27.624 172.982 27.656C172.806 27.672 172.638 27.68 172.478 27.68C171.918 27.68 171.366 27.648 170.822 27.584C170.294 27.504 169.774 27.424 169.262 27.344C169.71 27.504 170.278 27.632 170.966 27.728C171.654 27.824 172.35 27.872 173.054 27.872C172.878 27.984 172.67 28.072 172.43 28.136C172.19 28.2 171.942 28.232 171.686 28.232L169.958 28.016C169.734 27.984 169.558 27.952 169.43 27.92C169.318 27.888 169.206 27.856 169.094 27.824C168.982 27.776 168.854 27.728 168.71 27.68C168.582 27.632 168.398 27.576 168.158 27.512V27.248C167.742 27.136 167.406 26.944 167.15 26.672C166.894 26.4 166.694 26.104 166.55 25.784C166.406 25.464 166.31 25.144 166.262 24.824C166.214 24.488 166.19 24.192 166.19 23.936C166.19 23.664 166.19 23.416 166.19 23.192C166.206 22.952 166.214 22.712 166.214 22.472C166.214 22.296 166.206 22.072 166.19 21.8C166.19 21.528 166.182 21.24 166.166 20.936C166.15 20.632 166.134 20.32 166.118 20C166.118 19.68 166.118 19.376 166.118 19.088C166.118 18.912 166.118 18.744 166.118 18.584C166.134 18.424 166.15 18.28 166.166 18.152H165.926C165.91 18.264 165.902 18.392 165.902 18.536V18.968C165.902 19.432 165.91 19.896 165.926 20.36C165.942 20.808 165.95 21.224 165.95 21.608C165.966 21.992 165.982 22.328 165.998 22.616C166.014 22.888 166.022 23.088 166.022 23.216V24.176V24.368C165.974 23.936 165.926 23.32 165.878 22.52C165.83 21.592 165.806 20.568 165.806 19.448V19.016C165.806 18.84 165.806 18.672 165.806 18.512C165.822 18.352 165.846 18.232 165.878 18.152L165.062 18.104C164.886 17.992 164.71 17.904 164.534 17.84C164.358 17.776 164.198 17.744 164.054 17.744V17.264C164.054 17.168 164.062 17.088 164.078 17.024C164.11 16.944 164.19 16.904 164.318 16.904C164.35 16.904 164.43 16.92 164.558 16.952V16.664C164.382 16.568 164.238 16.44 164.126 16.28C164.014 16.104 163.958 15.928 163.958 15.752C163.958 15.336 164.254 15.128 164.846 15.128C165.07 15.128 165.302 15.144 165.542 15.176C165.782 15.208 166.03 15.232 166.286 15.248C166.35 14.896 166.406 14.584 166.454 14.312C166.502 14.024 166.55 13.752 166.598 13.496C166.646 13.224 166.702 12.96 166.766 12.704C166.83 12.432 166.91 12.152 167.006 11.864C167.15 11.544 167.262 11.2 167.342 10.832C167.422 10.448 167.478 10.072 167.51 9.704L168.014 9.728C168.094 9.728 168.158 9.752 168.206 9.8C168.27 9.848 168.302 9.96 168.302 10.136C168.302 10.28 168.278 10.472 168.23 10.712L168.518 10.784C168.646 10.352 168.798 10 168.974 9.728C169.166 9.456 169.35 9.32 169.526 9.32C169.798 9.32 169.966 9.664 170.03 10.352V10.784C170.03 11.2 169.998 11.592 169.934 11.96C169.886 12.312 169.822 12.664 169.742 13.016C169.662 13.368 169.582 13.728 169.502 14.096C169.422 14.464 169.35 14.864 169.286 15.296C169.638 15.344 169.982 15.368 170.318 15.368C170.478 15.368 170.638 15.368 170.798 15.368C170.958 15.352 171.118 15.344 171.278 15.344C171.438 15.344 171.606 15.28 171.782 15.152C171.958 15.024 172.118 14.96 172.262 14.96C172.39 14.96 172.486 15 172.55 15.08C172.614 15.16 172.646 15.248 172.646 15.344C172.358 15.424 172.07 15.512 171.782 15.608C171.51 15.688 171.246 15.768 170.99 15.848C171.246 15.816 171.518 15.76 171.806 15.68C172.094 15.584 172.398 15.496 172.718 15.416C172.718 15.496 172.718 15.568 172.718 15.632C172.734 15.696 172.758 15.768 172.79 15.848C172.822 15.848 172.862 15.84 172.91 15.824C173.006 15.792 173.062 15.776 173.078 15.776C173.238 15.856 173.342 15.96 173.39 16.088C173.438 16.2 173.462 16.328 173.462 16.472C173.462 16.584 173.446 16.688 173.414 16.784C173.382 16.864 173.366 16.936 173.366 17ZM167.006 25.856C166.782 25.424 166.662 25 166.646 24.584C166.63 24.168 166.606 23.776 166.574 23.408L166.358 19.76L166.286 20.192C166.286 21.264 166.318 22.24 166.382 23.12C166.462 23.984 166.574 24.656 166.718 25.136C166.718 25.28 166.71 25.376 166.694 25.424C166.694 25.472 166.694 25.512 166.694 25.544C166.694 25.576 166.71 25.616 166.742 25.664C166.79 25.712 166.878 25.776 167.006 25.856ZM168.374 24.56C168.342 24.432 168.326 24.296 168.326 24.152V22.976C168.31 23.136 168.294 23.296 168.278 23.456C168.262 23.6 168.254 23.752 168.254 23.912C168.254 24.328 168.278 24.648 168.326 24.872C168.374 25.064 168.47 25.224 168.614 25.352C168.534 25.256 168.478 25.152 168.446 25.04C168.43 24.912 168.406 24.752 168.374 24.56ZM166.046 24.536L166.022 24.368L166.046 24.536ZM168.662 25.376C168.646 25.36 168.63 25.352 168.614 25.352C168.63 25.352 168.646 25.36 168.662 25.376Z" fill="#6B8BBE"/>
<path d="M12.1363 2.75745e-06C11.9913 -5.97425e-05 11.8466 0.000940219 11.7022 0.00300272C9.77769 0.0301902 7.90869 0.253972 6.22962 0.743815C3.54312 1.52757 1.27925 3.05972 0.349906 5.59388C-0.479406 7.85541 0.243781 9.92269 1.69541 11.5106C3.14703 13.0986 5.27075 14.3806 7.52103 15.6612C9.77141 16.9418 12.1537 18.2086 14.0923 19.6184C16.0311 21.0281 17.4893 22.5623 18.0505 24.3146C18.1558 24.6433 18.0763 25.6697 17.8704 26.5121C17.7882 26.8478 17.7009 27.1419 17.6219 27.3941L19.2669 27.7911C19.3456 27.5334 19.4307 27.2357 19.5095 26.9131C19.7428 25.9592 19.9926 24.8459 19.6576 23.7999C18.9289 21.5244 17.1641 19.7656 15.0848 18.2537C13.0055 16.7417 10.575 15.4577 8.35587 14.1948C6.13672 12.9319 4.13412 11.6774 2.94087 10.372C1.74762 9.06675 1.30747 7.88419 1.93437 6.17485C2.63731 4.25785 4.32631 3.057 6.70222 2.36372C9.07812 1.67053 12.0772 1.55185 15.0388 1.83113C18.0004 2.1105 20.9296 2.7826 23.1763 3.60169C24.1461 3.95522 24.9881 4.33744 25.6423 4.71338C25.9438 4.48866 26.2623 4.26366 26.597 4.06275C26.8008 3.94041 27.0132 3.82585 27.2352 3.72694C27.1051 3.63597 26.9729 3.54807 26.8387 3.46332C26.0052 2.93888 24.959 2.4555 23.7545 2.01638C21.3454 1.13813 18.3059 0.44419 15.1974 0.15094C14.1774 0.0547528 13.1506 0.000940257 12.1363 2.75745e-06ZM28.6273 5.0895C28.5934 5.09063 28.5585 5.093 28.5227 5.09663C28.2357 5.12475 27.8679 5.268 27.4656 5.5095C26.8918 5.85403 26.2898 6.37435 25.662 6.84197L31.5167 14.7233L33.4149 14.2784C33.0153 11.4342 32.0817 7.46803 29.3331 5.3475C29.0621 5.13835 28.8647 5.08153 28.6273 5.0895ZM33.5772 15.9736L31.9345 16.3587L36.6467 36.4643H38.38L33.5772 15.9736ZM3.20047 27.1943L3.01625 28.9267C3.56337 28.9456 4.12719 28.9717 4.70478 29.0048L4.87841 27.3728L3.20047 27.1943ZM14.7489 28.4367L14.2811 30.1577L19.9326 31.5284L20.4484 29.8122L14.7489 28.4367ZM0.981687 30.5759C0.894125 30.5759 0.878094 30.5665 0.741875 30.7544C0.605656 30.9423 0.442156 31.3255 0.328437 31.8329C0.100812 32.8477 0.0456874 34.3308 0.13625 35.8124C0.226906 37.2939 0.458 38.7894 0.742625 39.8633C0.884844 40.4001 1.04637 40.8348 1.17275 41.0717C1.20078 41.1243 1.2035 41.1214 1.22431 41.1518H2.09572C1.7936 40.4731 1.63763 39.7384 1.63794 38.9955C1.63794 36.0542 4.04047 33.6518 6.98169 33.6518C9.92291 33.6518 12.3254 36.0542 12.3254 38.9955C12.3258 39.7384 12.1698 40.4731 11.8678 41.1518H20.3535C20.3965 41.0951 20.4769 40.9655 20.555 40.7486C20.7238 40.2797 20.8656 39.5244 20.9556 38.7148C21.1356 37.0955 21.1379 35.2455 21.1379 34.4955C21.1379 34.4369 21.1083 34.3064 20.8318 34.0648C20.5554 33.8232 20.0668 33.5347 19.4254 33.2623C18.1423 32.7174 16.2595 32.2192 14.1373 31.8177C9.89319 31.0148 4.66559 30.5759 0.981687 30.5759ZM6.98169 35.3393C4.95247 35.3393 3.32544 36.9662 3.32544 38.9955C3.32544 41.0247 4.95247 42.6518 6.98169 42.6518C9.011 42.6518 10.6379 41.0247 10.6379 38.9955C10.6379 36.9662 9.011 35.3393 6.98169 35.3393ZM36.0032 38.1518L35.347 39.4643H40.1165L39.4603 38.1518H36.0032ZM31.8254 41.1518V42.4643H43.6379V41.1518H31.8254Z" fill="#5C708F"/>
</svg>
