<svg width="65" height="64" viewBox="0 0 65 64" fill="none" xmlns="http://www.w3.org/2000/svg">
<g clip-path="url(#clip0_551_1395)">
<path d="M32.5 64C50.4493 64 65 49.6731 65 32C65 14.3269 50.4493 0 32.5 0C14.5507 0 0 14.3269 0 32C0 49.6731 14.5507 64 32.5 64Z" fill="#F0C699"/>
<path d="M18.8711 40C18.3086 40 18.1249 39.7422 18.3202 39.2266L24.0625 24.1445C24.3047 23.5117 24.6719 23.1953 25.1641 23.1953H26.8047C27.2969 23.1953 27.6641 23.5117 27.9062 24.1445L33.6483 39.2266C33.8437 39.7422 33.6601 40 33.0976 40H31.2344C30.7188 40 30.3594 39.7305 30.1562 39.1914L28.9608 36.0391H23.0078L21.8125 39.1914C21.6094 39.7305 21.25 40 20.7344 40H18.8711ZM24.0977 33.1328H27.871L26.4297 29.4062C26.2578 28.9688 26.1523 28.6523 26.1133 28.457C26.082 28.2539 26.0469 27.957 26.0078 27.5664H25.9609C25.9219 27.957 25.8828 28.2539 25.8438 28.457C25.8125 28.6523 25.7109 28.9688 25.5391 29.4062L24.0977 33.1328ZM36.5546 40C36.0077 40 35.7344 39.707 35.7344 39.1211V24.0742C35.7344 23.4883 36.0077 23.1953 36.5546 23.1953H38.453C38.9218 23.1953 39.1562 23.4883 39.1562 24.0742V37.0938H45.9883C46.5742 37.0938 46.8671 37.3477 46.8671 37.8555V39.2383C46.8671 39.7461 46.5742 40 45.9883 40H36.5546Z" fill="black"/>
</g>
<defs>
<clipPath id="clip0_551_1395">
<rect width="65" height="64" fill="white"/>
</clipPath>
</defs>
</svg>
